<svg width="1200" height="800" viewBox="0 0 1200 800" fill="none" xmlns="http://www.w3.org/2000/svg"><rect width="1200" height="800" fill="#1C1917"/><rect x="90" y="88" width="1020" height="624" rx="8" fill="#0C0A09" stroke="#44403C"/><rect x="90" y="88" width="204" height="624" rx="8" fill="#171412"/><path d="M294 88V712" stroke="#44403C"/><rect x="126" y="130" width="80" height="12" rx="6" fill="#D6D3D1"/><rect x="126" y="203" width="112" height="9" rx="4.5" fill="#78716C"/><rect x="126" y="240" width="86" height="9" rx="4.5" fill="#57534E"/><rect x="126" y="277" width="102" height="9" rx="4.5" fill="#57534E"/><rect x="340" y="135" width="188" height="12" rx="6" fill="#78716C"/><rect x="340" y="180" width="320" height="88" rx="5" fill="#1C1917" stroke="#44403C"/><text x="370" y="222" fill="#F5F5F4" font-family="Arial" font-size="30">$ 48,240</text><rect x="686" y="180" width="370" height="88" rx="5" fill="#1C1917" stroke="#44403C"/><text x="716" y="222" fill="#D6D3D1" font-family="Arial" font-size="30">+18.4%</text><rect x="340" y="300" width="716" height="238" rx="5" fill="#171412" stroke="#44403C"/><path d="M375 489C445 425 472 453 532 389C590 327 648 411 714 346C772 288 847 360 902 274C947 204 981 301 1021 234" stroke="#D6D3D1" stroke-width="4"/><rect x="340" y="568" width="716" height="94" rx="5" fill="#171412" stroke="#44403C"/><rect x="370" y="596" width="210" height="10" rx="5" fill="#A8A29E"/><rect x="370" y="626" width="500" height="8" rx="4" fill="#44403C"/></svg>
