<svg width="1200" height="800" viewBox="0 0 1200 800" fill="none" xmlns="http://www.w3.org/2000/svg"><rect width="1200" height="800" fill="#18181B"/><rect x="90" y="88" width="1020" height="624" rx="8" fill="#09090B" stroke="#3F3F46"/><path d="M90 154H1110" stroke="#3F3F46"/><circle cx="122" cy="121" r="7" fill="#A1A1AA"/><rect x="154" y="115" width="120" height="12" rx="6" fill="#3F3F46"/><rect x="126" y="195" width="190" height="18" rx="9" fill="#F4F4F5"/><rect x="126" y="229" width="135" height="10" rx="5" fill="#52525B"/><rect x="126" y="285" width="660" height="170" rx="6" fill="#18181B" stroke="#3F3F46"/><path d="M156 411L260 360L356 385L470 297L580 334L682 238L756 274" stroke="#E4E4E7" stroke-width="4"/><rect x="816" y="285" width="250" height="170" rx="6" fill="#18181B" stroke="#3F3F46"/><rect x="846" y="316" width="92" height="11" rx="5" fill="#A1A1AA"/><rect x="846" y="351" width="182" height="8" rx="4" fill="#3F3F46"/><rect x="846" y="379" width="153" height="8" rx="4" fill="#3F3F46"/><rect x="126" y="485" width="940" height="160" rx="6" fill="#18181B" stroke="#3F3F46"/><rect x="157" y="518" width="215" height="12" rx="6" fill="#71717A"/><rect x="157" y="560" width="850" height="1" fill="#3F3F46"/><rect x="157" y="592" width="620" height="8" rx="4" fill="#52525B"/></svg>
